<?xml version="1.0" encoding="utf-8"?>
<svg xmlns="http://www.w3.org/2000/svg" viewBox="0 0 30 30" fill="#ffffff"><path style="line-height:normal;text-indent:0;text-align:start;text-decoration-line:none;text-decoration-style:solid;text-decoration-color:#000;text-transform:none;block-progression:tb;isolation:auto;mix-blend-mode:normal" d="M 4 7 C 2.3550302 7 1 8.3550302 1 10 L 1 19 C 1 20.64497 2.3550302 22 4 22 L 24 22 C 25.64497 22 27 20.64497 27 19 L 27 10 C 27 8.3550302 25.64497 7 24 7 L 4 7 z M 4 9 L 24 9 C 24.56503 9 25 9.4349698 25 10 L 25 19 C 25 19.56503 24.56503 20 24 20 L 4 20 C 3.4349698 20 3 19.56503 3 19 L 3 10 C 3 9.4349698 3.4349698 9 4 9 z M 15 11 L 8 15 L 13 15 L 13 19 L 20 15 L 15 15 L 15 11 z M 28 12 L 28 17 L 29 17 C 29.552 17 30 16.552 30 16 L 30 13 C 30 12.448 29.552 12 29 12 L 28 12 z" font-weight="400" font-family="sans-serif" white-space="normal" overflow="visible" fill="#ffffff"/></svg>
