<?xml version="1.0" encoding="UTF-8"?>
<svg xmlns="http://www.w3.org/2000/svg" xmlns:xlink="http://www.w3.org/1999/xlink" viewBox="0 0 50 50" version="1.1" fill="#ffffff"><g id="surface1" fill="#ffffff"><path style=" " d="M 30.90625 26.410156 C 30.078125 26.421875 31.0625 26.835938 32.136719 27.003906 C 32.4375 26.769531 32.707031 26.535156 32.945313 26.304688 C 32.277344 26.46875 31.59375 26.472656 30.90625 26.410156 M 35.335938 25.308594 C 35.824219 24.628906 36.183594 23.886719 36.308594 23.117188 C 36.199219 23.667969 35.902344 24.140625 35.621094 24.636719 C 34.078125 25.609375 35.476563 24.0625 35.621094 23.472656 C 33.964844 25.558594 35.394531 24.722656 35.335938 25.308594 M 36.96875 21.054688 C 37.070313 19.566406 36.675781 20.035156 36.546875 20.605469 C 36.699219 20.683594 36.820313 21.652344 36.96875 21.054688 M 27.777344 0.746094 C 28.21875 0.824219 28.726563 0.886719 28.65625 0.992188 C 29.140625 0.886719 29.246094 0.789063 27.777344 0.746094 M 28.65625 0.992188 L 28.34375 1.054688 L 28.636719 1.03125 L 28.65625 0.992188 M 42.386719 21.617188 C 42.433594 22.949219 41.996094 23.597656 41.597656 24.746094 L 40.886719 25.101563 C 40.300781 26.234375 40.941406 25.820313 40.523438 26.722656 C 39.613281 27.53125 37.761719 29.257813 37.167969 29.414063 C 36.734375 29.402344 37.460938 28.902344 37.554688 28.707031 C 36.335938 29.542969 36.578125 29.964844 34.710938 30.472656 L 34.65625 30.351563 C 30.058594 32.515625 23.667969 28.226563 23.753906 22.375 C 23.703125 22.746094 23.613281 22.65625 23.511719 22.804688 C 23.273438 19.796875 24.902344 16.769531 27.648438 15.535156 C 30.332031 14.207031 33.480469 14.753906 35.402344 16.546875 C 34.347656 15.160156 32.242188 13.695313 29.753906 13.832031 C 27.3125 13.871094 25.027344 15.421875 24.265625 17.105469 C 23.015625 17.894531 22.867188 20.140625 22.324219 20.550781 C 21.589844 25.941406 23.703125 28.269531 27.277344 31.007813 C 27.839844 31.386719 27.433594 31.441406 27.511719 31.730469 C 26.324219 31.175781 25.238281 30.335938 24.34375 29.308594 C 24.816406 30.003906 25.328125 30.679688 25.988281 31.207031 C 24.871094 30.828125 23.375 28.496094 22.9375 28.402344 C 24.867188 31.855469 30.769531 34.460938 33.855469 33.167969 C 32.429688 33.222656 30.613281 33.199219 29.007813 32.601563 C 28.332031 32.253906 27.414063 31.535156 27.578125 31.402344 C 31.792969 32.976563 36.148438 32.59375 39.796875 29.671875 C 40.722656 28.945313 41.738281 27.71875 42.03125 27.699219 C 41.589844 28.363281 42.105469 28.019531 41.765625 28.605469 C 42.691406 27.113281 41.367188 28 42.722656 26.03125 L 43.222656 26.722656 C 43.039063 25.484375 44.761719 23.980469 44.585938 22.023438 C 44.980469 21.425781 45.027344 22.667969 44.609375 24.046875 C 45.191406 22.515625 44.761719 22.269531 44.910156 21.011719 C 45.070313 21.433594 45.285156 21.886719 45.394531 22.332031 C 45.015625 20.855469 45.78125 19.84375 45.972656 18.988281 C 45.785156 18.902344 45.386719 19.640625 45.296875 17.894531 C 45.3125 17.136719 45.507813 17.5 45.585938 17.3125 C 45.4375 17.226563 45.046875 16.644531 44.808594 15.53125 C 44.980469 15.269531 45.269531 16.210938 45.503906 16.25 C 45.351563 15.363281 45.09375 14.6875 45.082031 14.007813 C 44.398438 12.578125 44.839844 14.199219 44.285156 13.394531 C 43.558594 11.121094 44.890625 12.867188 44.980469 11.835938 C 46.082031 13.433594 46.710938 15.914063 47 16.941406 C 46.78125 15.6875 46.425781 14.476563 45.988281 13.304688 C 46.324219 13.445313 45.449219 10.726563 46.425781 12.527344 C 45.382813 8.691406 41.964844 5.109375 38.820313 3.425781 C 39.203125 3.78125 39.691406 4.222656 39.515625 4.289063 C 37.953125 3.359375 38.226563 3.285156 38.003906 2.894531 C 36.730469 2.375 36.644531 2.933594 35.800781 2.894531 C 33.398438 1.621094 32.9375 1.757813 30.726563 0.957031 L 30.828125 1.429688 C 29.238281 0.898438 28.976563 1.628906 27.253906 1.429688 C 27.148438 1.347656 27.804688 1.132813 28.34375 1.054688 C 26.804688 1.257813 26.878906 0.753906 25.375 1.113281 C 25.746094 0.851563 26.136719 0.679688 26.53125 0.457031 C 25.277344 0.535156 23.539063 1.1875 24.074219 0.59375 C 22.03125 1.507813 18.394531 2.785156 16.355469 4.699219 L 16.289063 4.269531 C 15.355469 5.390625 12.21875 7.621094 11.964844 9.074219 L 11.71875 9.132813 C 11.234375 9.957031 10.917969 10.890625 10.535156 11.734375 C 9.898438 12.816406 9.601563 12.152344 9.691406 12.320313 C 8.441406 14.855469 7.820313 16.988281 7.285156 18.734375 C 7.664063 19.308594 7.292969 22.179688 7.4375 24.472656 C 6.808594 35.816406 15.398438 46.828125 24.785156 49.371094 C 26.160156 49.863281 28.207031 49.84375 29.945313 49.894531 C 27.894531 49.308594 27.628906 49.585938 25.628906 48.886719 C 24.183594 48.207031 23.867188 47.429688 22.847656 46.546875 L 23.25 47.261719 C 21.246094 46.550781 22.085938 46.382813 20.453125 45.867188 L 20.886719 45.300781 C 20.238281 45.253906 19.164063 44.207031 18.871094 43.628906 L 18.160156 43.65625 C 17.308594 42.601563 16.851563 41.84375 16.886719 41.253906 L 16.65625 41.664063 C 16.394531 41.214844 13.511719 37.710938 15.007813 38.527344 C 14.730469 38.273438 14.359375 38.113281 13.960938 37.386719 L 14.265625 37.039063 C 13.546875 36.113281 12.941406 34.925781 12.984375 34.53125 C 13.367188 35.050781 13.636719 35.144531 13.898438 35.234375 C 12.082031 30.726563 11.980469 34.988281 10.605469 30.644531 L 10.894531 30.621094 C 10.671875 30.285156 10.535156 29.921875 10.359375 29.5625 L 10.484375 28.300781 C 9.175781 26.785156 10.117188 21.867188 10.308594 19.171875 C 10.4375 18.074219 11.398438 16.90625 12.128906 15.074219 L 11.6875 15 C 12.535156 13.515625 16.546875 9.035156 18.402344 9.265625 C 19.300781 8.136719 18.226563 9.261719 18.046875 8.976563 C 20.023438 6.933594 20.644531 7.53125 21.980469 7.164063 C 23.417969 6.3125 20.746094 7.496094 21.425781 6.839844 C 23.910156 6.203125 23.1875 5.394531 26.429688 5.074219 C 26.773438 5.265625 25.636719 5.375 25.351563 5.628906 C 27.421875 4.613281 31.90625 4.84375 34.816406 6.191406 C 38.195313 7.769531 41.992188 12.4375 42.140625 16.828125 L 42.3125 16.875 C 42.222656 18.621094 42.578125 20.636719 41.964844 22.492188 L 42.386719 21.617188 M 21.898438 27.542969 L 21.785156 28.121094 C 22.324219 28.859375 22.757813 29.65625 23.449219 30.230469 C 22.953125 29.257813 22.582031 28.859375 21.898438 27.542969 M 23.183594 27.492188 C 22.894531 27.175781 22.726563 26.792969 22.535156 26.414063 C 22.71875 27.082031 23.089844 27.65625 23.4375 28.242188 L 23.183594 27.492188 M 45.863281 22.5625 L 45.742188 22.867188 C 45.523438 24.445313 45.042969 26.007813 44.304688 27.457031 C 45.117188 25.925781 45.644531 24.257813 45.863281 22.5625 M 27.941406 0.351563 C 28.5 0.148438 29.3125 0.238281 29.902344 0.105469 C 29.132813 0.167969 28.363281 0.207031 27.605469 0.304688 L 27.941406 0.351563 M 8.355469 10.765625 C 8.484375 11.953125 7.460938 12.414063 8.585938 11.632813 C 9.183594 10.277344 8.347656 11.257813 8.355469 10.765625 M 7.039063 16.273438 C 7.296875 15.476563 7.34375 15.003906 7.441406 14.542969 C 6.726563 15.457031 7.113281 15.652344 7.039063 16.273438 " fill="#ffffff"/></g></svg>
